<svg xmlns="http://www.w3.org/2000/svg" viewBox="0 0 175 32"><defs><style>.a{fill:#df4426;fill-rule:evenodd;}.b{fill:#11113a;}</style></defs><title>logo</title><path class="a" d="M1.89,5C9.21,5.43,19-.52,26.28,0l-4.47,29L0,27,1.89,5Z" transform="translate(0 0)"/><path class="b" d="M43.09,9.44A6.46,6.46,0,0,1,49,12.88V4.36h1.91V24.55H49V21.22a6.19,6.19,0,0,1-5.89,3.55c-4.09,0-7.12-3-7.12-7.69S39,9.44,43.09,9.44Zm.32,1.66c-3.13,0-5.53,2.18-5.53,6s2.4,6,5.53,6,5.54-2.3,5.54-6S46.47,11.1,43.41,11.1Z" transform="translate(0 0)"/><path class="b" d="M61.67,24.77c-4.23,0-7.32-2.95-7.32-7.67s3-7.66,7.32-7.66a6.69,6.69,0,0,1,7,6.9,14.25,14.25,0,0,1,0,1.5H56.29a5.21,5.21,0,0,0,5.38,5.32,4.62,4.62,0,0,0,4.8-3.33h2C67.8,22.64,65.4,24.77,61.67,24.77Zm-5.38-8.48H66.77a4.88,4.88,0,0,0-5.19-5.22A5.15,5.15,0,0,0,56.29,16.29Z" transform="translate(0 0)"/><path class="b" d="M71.52,5.4a2.35,2.35,0,1,1,2.34,2.24A2.24,2.24,0,0,1,71.52,5.4Zm.41,4h3.81V24.55H71.93Z" transform="translate(0 0)"/><path class="b" d="M100.65,16.2c0-2.4-1.33-3.65-3.35-3.65s-3.39,1.25-3.39,3.65v8.35H90.09V16.2c0-2.4-1.33-3.65-3.35-3.65s-3.41,1.25-3.41,3.65v8.35H79.51V9.44h3.82v1.83a5.48,5.48,0,0,1,4.45-2,5.8,5.8,0,0,1,5.32,2.89,6,6,0,0,1,5.18-2.89c3.63,0,6.19,2.29,6.19,6.47v8.86h-3.82Z" transform="translate(0 0)"/><path class="b" d="M114,9.19a6,6,0,0,1,5,2.4V9.44h3.85V24.55H119V22.34a5.94,5.94,0,0,1-5,2.46c-3.82,0-6.88-3.14-6.88-7.86S110.18,9.19,114,9.19Zm1,3.36a4,4,0,0,0-4,4.39c0,2.86,1.94,4.5,4,4.5s4-1.58,4-4.44S117.11,12.55,115,12.55Z" transform="translate(0 0)"/><path class="b" d="M132.52,9.19a5.91,5.91,0,0,1,5,2.4V9.44h3.85V24.66c0,4.09-2.51,7.34-7.48,7.34-4.25,0-7.23-2.13-7.61-5.59h3.8c.38,1.36,1.8,2.26,3.71,2.26,2.1,0,3.73-1.2,3.73-4V22.32a6,6,0,0,1-5,2.48c-3.85,0-6.9-3.14-6.9-7.86S128.67,9.19,132.52,9.19Zm1,3.36a4,4,0,0,0-4,4.39c0,2.86,1.94,4.5,4,4.5s4-1.58,4-4.44S135.6,12.55,133.5,12.55Z" transform="translate(0 0)"/><path class="b" d="M144.69,5.4A2.35,2.35,0,1,1,147,7.64,2.24,2.24,0,0,1,144.69,5.4Zm.41,4h3.82V24.55H145.1Z" transform="translate(0 0)"/><path class="b" d="M163.27,16.2c0-2.42-1.34-3.73-3.36-3.73s-3.41,1.31-3.41,3.73v8.35h-3.82V9.44h3.82v1.88a5.65,5.65,0,0,1,4.56-2.1c3.52,0,6,2.29,6,6.47v8.86h-3.82Z" transform="translate(0 0)"/><path class="b" d="M170.31,5.4a2.35,2.35,0,1,1,2.34,2.24A2.24,2.24,0,0,1,170.31,5.4Zm.41,4h3.82V24.55h-3.82Z" transform="translate(0 0)"/></svg>